<mxfile host="Electron" modified="2023-05-24T02:25:18.787Z" agent="Mozilla/5.0 (Macintosh; Intel Mac OS X 10_15_7) AppleWebKit/537.36 (KHTML, like Gecko) draw.io/21.2.8 Chrome/112.0.5615.165 Electron/24.2.0 Safari/537.36" etag="Lr2QGLV36mFIgknqzEKy" version="21.2.8" type="device">
  <diagram name="Страница 1" id="Sio9iWdWQPgoCkeJ5rXd">
    <mxGraphModel dx="2070" dy="1463" grid="1" gridSize="10" guides="1" tooltips="1" connect="1" arrows="1" fold="1" page="1" pageScale="1" pageWidth="1400" pageHeight="1300" math="0" shadow="0">
      <root>
        <mxCell id="0" />
        <mxCell id="1" parent="0" />
        <mxCell id="NpUEs-EX_APf6wdP5sfW-65" value="RAM" style="swimlane;whiteSpace=wrap;html=1;hachureGap=4;fontFamily=Architects Daughter;fontSource=https%3A%2F%2Ffonts.googleapis.com%2Fcss%3Ffamily%3DArchitects%2BDaughter;fontSize=20;shadow=0;sketch=1;curveFitting=1;jiggle=2;rounded=1;" vertex="1" parent="1">
          <mxGeometry x="50" y="430" width="1290" height="830" as="geometry" />
        </mxCell>
        <mxCell id="NpUEs-EX_APf6wdP5sfW-3" value="Return address #0" style="rounded=1;whiteSpace=wrap;html=1;sketch=1;hachureGap=4;jiggle=2;curveFitting=1;fontFamily=Architects Daughter;fontSource=https%3A%2F%2Ffonts.googleapis.com%2Fcss%3Ffamily%3DArchitects%2BDaughter;fontSize=25;fillColor=#f8cecc;strokeColor=#b85450;" vertex="1" parent="NpUEs-EX_APf6wdP5sfW-65">
          <mxGeometry x="440" y="130" width="240" height="70" as="geometry" />
        </mxCell>
        <mxCell id="NpUEs-EX_APf6wdP5sfW-4" value="%rsp0" style="text;html=1;strokeColor=none;fillColor=none;align=center;verticalAlign=middle;whiteSpace=wrap;rounded=0;fontSize=25;fontFamily=Architects Daughter;" vertex="1" parent="NpUEs-EX_APf6wdP5sfW-65">
          <mxGeometry x="280" y="50" width="160" height="70" as="geometry" />
        </mxCell>
        <mxCell id="NpUEs-EX_APf6wdP5sfW-7" value="RBP #0" style="rounded=1;whiteSpace=wrap;html=1;sketch=1;hachureGap=4;jiggle=2;curveFitting=1;fontFamily=Architects Daughter;fontSource=https%3A%2F%2Ffonts.googleapis.com%2Fcss%3Ffamily%3DArchitects%2BDaughter;fontSize=25;fillColor=#dae8fc;strokeColor=#6c8ebf;" vertex="1" parent="NpUEs-EX_APf6wdP5sfW-65">
          <mxGeometry x="440" y="210" width="240" height="70" as="geometry" />
        </mxCell>
        <mxCell id="NpUEs-EX_APf6wdP5sfW-8" value="%rsp0 - 8" style="text;html=1;strokeColor=none;fillColor=none;align=center;verticalAlign=middle;whiteSpace=wrap;rounded=0;fontSize=25;fontFamily=Architects Daughter;" vertex="1" parent="NpUEs-EX_APf6wdP5sfW-65">
          <mxGeometry x="280" y="130" width="160" height="70" as="geometry" />
        </mxCell>
        <mxCell id="NpUEs-EX_APf6wdP5sfW-9" value="..." style="rounded=1;whiteSpace=wrap;html=1;sketch=1;hachureGap=4;jiggle=2;curveFitting=1;fontFamily=Architects Daughter;fontSource=https%3A%2F%2Ffonts.googleapis.com%2Fcss%3Ffamily%3DArchitects%2BDaughter;fontSize=25;fillColor=#f5f5f5;fontColor=#333333;strokeColor=#666666;" vertex="1" parent="NpUEs-EX_APf6wdP5sfW-65">
          <mxGeometry x="440" y="290" width="240" height="70" as="geometry" />
        </mxCell>
        <mxCell id="NpUEs-EX_APf6wdP5sfW-10" value="%rsp0 - 16" style="text;html=1;strokeColor=none;fillColor=none;align=center;verticalAlign=middle;whiteSpace=wrap;rounded=0;fontSize=25;fontFamily=Architects Daughter;" vertex="1" parent="NpUEs-EX_APf6wdP5sfW-65">
          <mxGeometry x="280" y="210" width="160" height="70" as="geometry" />
        </mxCell>
        <mxCell id="NpUEs-EX_APf6wdP5sfW-28" value="..." style="rounded=1;whiteSpace=wrap;html=1;sketch=1;hachureGap=4;jiggle=2;curveFitting=1;fontFamily=Architects Daughter;fontSource=https%3A%2F%2Ffonts.googleapis.com%2Fcss%3Ffamily%3DArchitects%2BDaughter;fontSize=25;fillColor=#f5f5f5;fontColor=#333333;strokeColor=#666666;" vertex="1" parent="NpUEs-EX_APf6wdP5sfW-65">
          <mxGeometry x="440" y="50" width="240" height="70" as="geometry" />
        </mxCell>
        <mxCell id="NpUEs-EX_APf6wdP5sfW-29" value="Return address #1" style="rounded=1;whiteSpace=wrap;html=1;sketch=1;hachureGap=4;jiggle=2;curveFitting=1;fontFamily=Architects Daughter;fontSource=https%3A%2F%2Ffonts.googleapis.com%2Fcss%3Ffamily%3DArchitects%2BDaughter;fontSize=25;fillColor=#f8cecc;strokeColor=#b85450;" vertex="1" parent="NpUEs-EX_APf6wdP5sfW-65">
          <mxGeometry x="310" y="480" width="240" height="70" as="geometry" />
        </mxCell>
        <mxCell id="NpUEs-EX_APf6wdP5sfW-30" value="%rsp1" style="text;html=1;strokeColor=none;fillColor=none;align=center;verticalAlign=middle;whiteSpace=wrap;rounded=0;fontSize=25;fontFamily=Architects Daughter;" vertex="1" parent="NpUEs-EX_APf6wdP5sfW-65">
          <mxGeometry x="150" y="400" width="160" height="70" as="geometry" />
        </mxCell>
        <mxCell id="NpUEs-EX_APf6wdP5sfW-50" style="edgeStyle=orthogonalEdgeStyle;curved=1;rounded=0;sketch=1;hachureGap=4;jiggle=2;curveFitting=1;orthogonalLoop=1;jettySize=auto;html=1;exitX=1;exitY=0.5;exitDx=0;exitDy=0;entryX=1;entryY=0.5;entryDx=0;entryDy=0;fontFamily=Architects Daughter;fontSource=https%3A%2F%2Ffonts.googleapis.com%2Fcss%3Ffamily%3DArchitects%2BDaughter;fontSize=16;endSize=12;" edge="1" parent="NpUEs-EX_APf6wdP5sfW-65" source="NpUEs-EX_APf6wdP5sfW-31" target="NpUEs-EX_APf6wdP5sfW-7">
          <mxGeometry relative="1" as="geometry" />
        </mxCell>
        <mxCell id="NpUEs-EX_APf6wdP5sfW-31" value="RBP #1" style="rounded=1;whiteSpace=wrap;html=1;sketch=1;hachureGap=4;jiggle=2;curveFitting=1;fontFamily=Architects Daughter;fontSource=https%3A%2F%2Ffonts.googleapis.com%2Fcss%3Ffamily%3DArchitects%2BDaughter;fontSize=25;fillColor=#dae8fc;strokeColor=#6c8ebf;" vertex="1" parent="NpUEs-EX_APf6wdP5sfW-65">
          <mxGeometry x="310" y="560" width="240" height="70" as="geometry" />
        </mxCell>
        <mxCell id="NpUEs-EX_APf6wdP5sfW-32" value="%rsp1 - 8" style="text;html=1;strokeColor=none;fillColor=none;align=center;verticalAlign=middle;whiteSpace=wrap;rounded=0;fontSize=25;fontFamily=Architects Daughter;" vertex="1" parent="NpUEs-EX_APf6wdP5sfW-65">
          <mxGeometry x="150" y="480" width="160" height="70" as="geometry" />
        </mxCell>
        <mxCell id="NpUEs-EX_APf6wdP5sfW-33" value="..." style="rounded=1;whiteSpace=wrap;html=1;sketch=1;hachureGap=4;jiggle=2;curveFitting=1;fontFamily=Architects Daughter;fontSource=https%3A%2F%2Ffonts.googleapis.com%2Fcss%3Ffamily%3DArchitects%2BDaughter;fontSize=25;fillColor=#f5f5f5;fontColor=#333333;strokeColor=#666666;" vertex="1" parent="NpUEs-EX_APf6wdP5sfW-65">
          <mxGeometry x="310" y="640" width="240" height="70" as="geometry" />
        </mxCell>
        <mxCell id="NpUEs-EX_APf6wdP5sfW-34" value="%rsp1 - 16" style="text;html=1;strokeColor=none;fillColor=none;align=center;verticalAlign=middle;whiteSpace=wrap;rounded=0;fontSize=25;fontFamily=Architects Daughter;" vertex="1" parent="NpUEs-EX_APf6wdP5sfW-65">
          <mxGeometry x="150" y="560" width="160" height="70" as="geometry" />
        </mxCell>
        <mxCell id="NpUEs-EX_APf6wdP5sfW-35" value="..." style="rounded=1;whiteSpace=wrap;html=1;sketch=1;hachureGap=4;jiggle=2;curveFitting=1;fontFamily=Architects Daughter;fontSource=https%3A%2F%2Ffonts.googleapis.com%2Fcss%3Ffamily%3DArchitects%2BDaughter;fontSize=25;fillColor=#f5f5f5;fontColor=#333333;strokeColor=#666666;" vertex="1" parent="NpUEs-EX_APf6wdP5sfW-65">
          <mxGeometry x="310" y="400" width="240" height="70" as="geometry" />
        </mxCell>
        <mxCell id="NpUEs-EX_APf6wdP5sfW-36" value="Return address #2" style="rounded=1;whiteSpace=wrap;html=1;sketch=1;hachureGap=4;jiggle=2;curveFitting=1;fontFamily=Architects Daughter;fontSource=https%3A%2F%2Ffonts.googleapis.com%2Fcss%3Ffamily%3DArchitects%2BDaughter;fontSize=25;fillColor=#f8cecc;strokeColor=#b85450;" vertex="1" parent="NpUEs-EX_APf6wdP5sfW-65">
          <mxGeometry x="820" y="540" width="240" height="70" as="geometry" />
        </mxCell>
        <mxCell id="NpUEs-EX_APf6wdP5sfW-37" value="%rsp2" style="text;html=1;strokeColor=none;fillColor=none;align=center;verticalAlign=middle;whiteSpace=wrap;rounded=0;fontSize=25;fontFamily=Architects Daughter;" vertex="1" parent="NpUEs-EX_APf6wdP5sfW-65">
          <mxGeometry x="660" y="460" width="160" height="70" as="geometry" />
        </mxCell>
        <mxCell id="NpUEs-EX_APf6wdP5sfW-38" value="RBP #2" style="rounded=1;whiteSpace=wrap;html=1;sketch=1;hachureGap=4;jiggle=2;curveFitting=1;fontFamily=Architects Daughter;fontSource=https%3A%2F%2Ffonts.googleapis.com%2Fcss%3Ffamily%3DArchitects%2BDaughter;fontSize=25;fillColor=#dae8fc;strokeColor=#6c8ebf;" vertex="1" parent="NpUEs-EX_APf6wdP5sfW-65">
          <mxGeometry x="820" y="620" width="240" height="70" as="geometry" />
        </mxCell>
        <mxCell id="NpUEs-EX_APf6wdP5sfW-39" value="%rsp2 - 8" style="text;html=1;strokeColor=none;fillColor=none;align=center;verticalAlign=middle;whiteSpace=wrap;rounded=0;fontSize=25;fontFamily=Architects Daughter;" vertex="1" parent="NpUEs-EX_APf6wdP5sfW-65">
          <mxGeometry x="660" y="540" width="160" height="70" as="geometry" />
        </mxCell>
        <mxCell id="NpUEs-EX_APf6wdP5sfW-40" value="..." style="rounded=1;whiteSpace=wrap;html=1;sketch=1;hachureGap=4;jiggle=2;curveFitting=1;fontFamily=Architects Daughter;fontSource=https%3A%2F%2Ffonts.googleapis.com%2Fcss%3Ffamily%3DArchitects%2BDaughter;fontSize=25;fillColor=#f5f5f5;fontColor=#333333;strokeColor=#666666;" vertex="1" parent="NpUEs-EX_APf6wdP5sfW-65">
          <mxGeometry x="820" y="700" width="240" height="70" as="geometry" />
        </mxCell>
        <mxCell id="NpUEs-EX_APf6wdP5sfW-51" style="edgeStyle=orthogonalEdgeStyle;curved=1;rounded=0;sketch=1;hachureGap=4;jiggle=2;curveFitting=1;orthogonalLoop=1;jettySize=auto;html=1;exitX=1;exitY=0.5;exitDx=0;exitDy=0;entryX=1;entryY=0.5;entryDx=0;entryDy=0;fontFamily=Architects Daughter;fontSource=https%3A%2F%2Ffonts.googleapis.com%2Fcss%3Ffamily%3DArchitects%2BDaughter;fontSize=16;endSize=12;" edge="1" parent="NpUEs-EX_APf6wdP5sfW-65" source="NpUEs-EX_APf6wdP5sfW-41" target="NpUEs-EX_APf6wdP5sfW-31">
          <mxGeometry relative="1" as="geometry" />
        </mxCell>
        <mxCell id="NpUEs-EX_APf6wdP5sfW-41" value="%rsp2 - 16" style="text;html=1;strokeColor=none;fillColor=none;align=center;verticalAlign=middle;whiteSpace=wrap;rounded=0;fontSize=25;fontFamily=Architects Daughter;" vertex="1" parent="NpUEs-EX_APf6wdP5sfW-65">
          <mxGeometry x="660" y="620" width="160" height="70" as="geometry" />
        </mxCell>
        <mxCell id="NpUEs-EX_APf6wdP5sfW-42" value="..." style="rounded=1;whiteSpace=wrap;html=1;sketch=1;hachureGap=4;jiggle=2;curveFitting=1;fontFamily=Architects Daughter;fontSource=https%3A%2F%2Ffonts.googleapis.com%2Fcss%3Ffamily%3DArchitects%2BDaughter;fontSize=25;fillColor=#f5f5f5;fontColor=#333333;strokeColor=#666666;" vertex="1" parent="NpUEs-EX_APf6wdP5sfW-65">
          <mxGeometry x="820" y="460" width="240" height="70" as="geometry" />
        </mxCell>
        <mxCell id="NpUEs-EX_APf6wdP5sfW-52" value="Return address #3" style="rounded=1;whiteSpace=wrap;html=1;sketch=1;hachureGap=4;jiggle=2;curveFitting=1;fontFamily=Architects Daughter;fontSource=https%3A%2F%2Ffonts.googleapis.com%2Fcss%3Ffamily%3DArchitects%2BDaughter;fontSize=25;fillColor=#f8cecc;strokeColor=#b85450;" vertex="1" parent="NpUEs-EX_APf6wdP5sfW-65">
          <mxGeometry x="910" y="180" width="240" height="70" as="geometry" />
        </mxCell>
        <mxCell id="NpUEs-EX_APf6wdP5sfW-53" value="%rsp3" style="text;html=1;strokeColor=none;fillColor=none;align=center;verticalAlign=middle;whiteSpace=wrap;rounded=0;fontSize=25;fontFamily=Architects Daughter;" vertex="1" parent="NpUEs-EX_APf6wdP5sfW-65">
          <mxGeometry x="750" y="100" width="160" height="70" as="geometry" />
        </mxCell>
        <mxCell id="NpUEs-EX_APf6wdP5sfW-59" style="edgeStyle=orthogonalEdgeStyle;curved=1;rounded=0;sketch=1;hachureGap=4;jiggle=2;curveFitting=1;orthogonalLoop=1;jettySize=auto;html=1;exitX=1;exitY=0.5;exitDx=0;exitDy=0;entryX=1;entryY=0.5;entryDx=0;entryDy=0;fontFamily=Architects Daughter;fontSource=https%3A%2F%2Ffonts.googleapis.com%2Fcss%3Ffamily%3DArchitects%2BDaughter;fontSize=16;endSize=12;" edge="1" parent="NpUEs-EX_APf6wdP5sfW-65" source="NpUEs-EX_APf6wdP5sfW-54" target="NpUEs-EX_APf6wdP5sfW-38">
          <mxGeometry relative="1" as="geometry" />
        </mxCell>
        <mxCell id="NpUEs-EX_APf6wdP5sfW-54" value="RBP #3" style="rounded=1;whiteSpace=wrap;html=1;sketch=1;hachureGap=4;jiggle=2;curveFitting=1;fontFamily=Architects Daughter;fontSource=https%3A%2F%2Ffonts.googleapis.com%2Fcss%3Ffamily%3DArchitects%2BDaughter;fontSize=25;fillColor=#dae8fc;strokeColor=#6c8ebf;" vertex="1" parent="NpUEs-EX_APf6wdP5sfW-65">
          <mxGeometry x="910" y="260" width="240" height="70" as="geometry" />
        </mxCell>
        <mxCell id="NpUEs-EX_APf6wdP5sfW-55" value="%rsp3 - 8" style="text;html=1;strokeColor=none;fillColor=none;align=center;verticalAlign=middle;whiteSpace=wrap;rounded=0;fontSize=25;fontFamily=Architects Daughter;" vertex="1" parent="NpUEs-EX_APf6wdP5sfW-65">
          <mxGeometry x="750" y="180" width="160" height="70" as="geometry" />
        </mxCell>
        <mxCell id="NpUEs-EX_APf6wdP5sfW-56" value="..." style="rounded=1;whiteSpace=wrap;html=1;sketch=1;hachureGap=4;jiggle=2;curveFitting=1;fontFamily=Architects Daughter;fontSource=https%3A%2F%2Ffonts.googleapis.com%2Fcss%3Ffamily%3DArchitects%2BDaughter;fontSize=25;fillColor=#f5f5f5;fontColor=#333333;strokeColor=#666666;" vertex="1" parent="NpUEs-EX_APf6wdP5sfW-65">
          <mxGeometry x="910" y="340" width="240" height="70" as="geometry" />
        </mxCell>
        <mxCell id="NpUEs-EX_APf6wdP5sfW-57" value="%rsp3 - 16" style="text;html=1;strokeColor=none;fillColor=none;align=center;verticalAlign=middle;whiteSpace=wrap;rounded=0;fontSize=25;fontFamily=Architects Daughter;" vertex="1" parent="NpUEs-EX_APf6wdP5sfW-65">
          <mxGeometry x="750" y="260" width="160" height="70" as="geometry" />
        </mxCell>
        <mxCell id="NpUEs-EX_APf6wdP5sfW-58" value="..." style="rounded=1;whiteSpace=wrap;html=1;sketch=1;hachureGap=4;jiggle=2;curveFitting=1;fontFamily=Architects Daughter;fontSource=https%3A%2F%2Ffonts.googleapis.com%2Fcss%3Ffamily%3DArchitects%2BDaughter;fontSize=25;fillColor=#f5f5f5;fontColor=#333333;strokeColor=#666666;" vertex="1" parent="NpUEs-EX_APf6wdP5sfW-65">
          <mxGeometry x="910" y="100" width="240" height="70" as="geometry" />
        </mxCell>
        <mxCell id="NpUEs-EX_APf6wdP5sfW-60" value="%rsp3 - 24" style="text;html=1;strokeColor=none;fillColor=none;align=center;verticalAlign=middle;whiteSpace=wrap;rounded=0;fontSize=25;fontFamily=Architects Daughter;" vertex="1" parent="NpUEs-EX_APf6wdP5sfW-65">
          <mxGeometry x="750" y="340" width="160" height="70" as="geometry" />
        </mxCell>
        <mxCell id="NpUEs-EX_APf6wdP5sfW-62" value="%rsp2 - 24" style="text;html=1;strokeColor=none;fillColor=none;align=center;verticalAlign=middle;whiteSpace=wrap;rounded=0;fontSize=25;fontFamily=Architects Daughter;" vertex="1" parent="NpUEs-EX_APf6wdP5sfW-65">
          <mxGeometry x="660" y="700" width="160" height="70" as="geometry" />
        </mxCell>
        <mxCell id="NpUEs-EX_APf6wdP5sfW-63" value="%rsp1 - 24" style="text;html=1;strokeColor=none;fillColor=none;align=center;verticalAlign=middle;whiteSpace=wrap;rounded=0;fontSize=25;fontFamily=Architects Daughter;" vertex="1" parent="NpUEs-EX_APf6wdP5sfW-65">
          <mxGeometry x="150" y="640" width="160" height="70" as="geometry" />
        </mxCell>
        <mxCell id="NpUEs-EX_APf6wdP5sfW-64" value="%rsp0 - 24" style="text;html=1;strokeColor=none;fillColor=none;align=center;verticalAlign=middle;whiteSpace=wrap;rounded=0;fontSize=25;fontFamily=Architects Daughter;" vertex="1" parent="NpUEs-EX_APf6wdP5sfW-65">
          <mxGeometry x="280" y="290" width="160" height="70" as="geometry" />
        </mxCell>
        <mxCell id="NpUEs-EX_APf6wdP5sfW-67" value="CPU" style="swimlane;whiteSpace=wrap;html=1;sketch=1;hachureGap=4;jiggle=2;curveFitting=1;fontFamily=Architects Daughter;fontSource=https%3A%2F%2Ffonts.googleapis.com%2Fcss%3Ffamily%3DArchitects%2BDaughter;fontSize=20;swimlaneFillColor=none;" vertex="1" parent="1">
          <mxGeometry x="467.5" y="40" width="455" height="310" as="geometry" />
        </mxCell>
        <mxCell id="NpUEs-EX_APf6wdP5sfW-68" value="RBP" style="rounded=1;whiteSpace=wrap;html=1;sketch=1;hachureGap=4;jiggle=2;curveFitting=1;fontFamily=Architects Daughter;fontSource=https%3A%2F%2Ffonts.googleapis.com%2Fcss%3Ffamily%3DArchitects%2BDaughter;fontSize=25;fillColor=#dae8fc;strokeColor=#6c8ebf;" vertex="1" parent="NpUEs-EX_APf6wdP5sfW-67">
          <mxGeometry x="105" y="130" width="240" height="70" as="geometry" />
        </mxCell>
        <mxCell id="NpUEs-EX_APf6wdP5sfW-69" value="RIP" style="rounded=1;whiteSpace=wrap;html=1;sketch=1;hachureGap=4;jiggle=2;curveFitting=1;fontFamily=Architects Daughter;fontSource=https%3A%2F%2Ffonts.googleapis.com%2Fcss%3Ffamily%3DArchitects%2BDaughter;fontSize=25;fillColor=#f8cecc;strokeColor=#b85450;" vertex="1" parent="NpUEs-EX_APf6wdP5sfW-67">
          <mxGeometry x="105" y="210" width="240" height="70" as="geometry" />
        </mxCell>
        <mxCell id="NpUEs-EX_APf6wdP5sfW-70" value="RSP" style="rounded=1;whiteSpace=wrap;html=1;sketch=1;hachureGap=4;jiggle=2;curveFitting=1;fontFamily=Architects Daughter;fontSource=https%3A%2F%2Ffonts.googleapis.com%2Fcss%3Ffamily%3DArchitects%2BDaughter;fontSize=25;fillColor=#fff2cc;strokeColor=#d6b656;" vertex="1" parent="NpUEs-EX_APf6wdP5sfW-67">
          <mxGeometry x="107.5" y="50" width="240" height="70" as="geometry" />
        </mxCell>
        <mxCell id="NpUEs-EX_APf6wdP5sfW-71" style="edgeStyle=orthogonalEdgeStyle;curved=1;rounded=0;sketch=1;hachureGap=4;jiggle=2;curveFitting=1;orthogonalLoop=1;jettySize=auto;html=1;exitX=1;exitY=0.5;exitDx=0;exitDy=0;entryX=1;entryY=0.5;entryDx=0;entryDy=0;fontFamily=Architects Daughter;fontSource=https%3A%2F%2Ffonts.googleapis.com%2Fcss%3Ffamily%3DArchitects%2BDaughter;fontSize=16;endSize=12;" edge="1" parent="1" source="NpUEs-EX_APf6wdP5sfW-70" target="NpUEs-EX_APf6wdP5sfW-56">
          <mxGeometry relative="1" as="geometry">
            <Array as="points">
              <mxPoint x="1325" y="105" />
              <mxPoint x="1325" y="805" />
            </Array>
          </mxGeometry>
        </mxCell>
        <mxCell id="NpUEs-EX_APf6wdP5sfW-72" style="edgeStyle=orthogonalEdgeStyle;curved=1;rounded=0;sketch=1;hachureGap=4;jiggle=2;curveFitting=1;orthogonalLoop=1;jettySize=auto;html=1;exitX=1;exitY=0.5;exitDx=0;exitDy=0;entryX=1;entryY=0.5;entryDx=0;entryDy=0;fontFamily=Architects Daughter;fontSource=https%3A%2F%2Ffonts.googleapis.com%2Fcss%3Ffamily%3DArchitects%2BDaughter;fontSize=16;endSize=12;" edge="1" parent="1" source="NpUEs-EX_APf6wdP5sfW-68" target="NpUEs-EX_APf6wdP5sfW-54">
          <mxGeometry relative="1" as="geometry">
            <Array as="points">
              <mxPoint x="1275" y="185" />
              <mxPoint x="1275" y="725" />
            </Array>
          </mxGeometry>
        </mxCell>
      </root>
    </mxGraphModel>
  </diagram>
</mxfile>
